<mxfile host="app.diagrams.net" modified="2021-12-08T10:34:13.415Z" agent="5.0 (X11)" etag="lSSvXg-7oxFFHgCPTElQ" version="15.9.1" type="github">
  <diagram id="R2lEEEUBdFMjLlhIrx00" name="Page-1">
    <mxGraphModel dx="981" dy="634" grid="1" gridSize="10" guides="1" tooltips="1" connect="1" arrows="1" fold="1" page="1" pageScale="1" pageWidth="850" pageHeight="1100" math="0" shadow="0" extFonts="Permanent Marker^https://fonts.googleapis.com/css?family=Permanent+Marker">
      <root>
        <mxCell id="0" />
        <mxCell id="1" parent="0" />
        <mxCell id="Pq_C5fKfiTd_kP-b9lsP-4" value="&lt;div&gt;Motor driver&lt;/div&gt;" style="rounded=0;whiteSpace=wrap;html=1;" vertex="1" parent="1">
          <mxGeometry x="570" y="440" width="120" height="60" as="geometry" />
        </mxCell>
        <mxCell id="Pq_C5fKfiTd_kP-b9lsP-5" value="Motor" style="ellipse;whiteSpace=wrap;html=1;aspect=fixed;" vertex="1" parent="1">
          <mxGeometry x="590" y="620" width="80" height="80" as="geometry" />
        </mxCell>
        <mxCell id="Pq_C5fKfiTd_kP-b9lsP-7" value="" style="shape=flexArrow;endArrow=classic;startArrow=classic;html=1;rounded=0;exitX=0.5;exitY=0;exitDx=0;exitDy=0;entryX=0.5;entryY=1;entryDx=0;entryDy=0;" edge="1" parent="1" source="Pq_C5fKfiTd_kP-b9lsP-5" target="Pq_C5fKfiTd_kP-b9lsP-4">
          <mxGeometry width="100" height="100" relative="1" as="geometry">
            <mxPoint x="380" y="430" as="sourcePoint" />
            <mxPoint x="480" y="330" as="targetPoint" />
          </mxGeometry>
        </mxCell>
        <mxCell id="Pq_C5fKfiTd_kP-b9lsP-8" value="&lt;div&gt;UDP communication&lt;/div&gt;" style="rounded=1;whiteSpace=wrap;html=1;" vertex="1" parent="1">
          <mxGeometry x="110" y="30" width="180" height="70" as="geometry" />
        </mxCell>
        <mxCell id="Pq_C5fKfiTd_kP-b9lsP-9" value="" style="endArrow=none;dashed=1;html=1;dashPattern=1 3;strokeWidth=2;rounded=0;" edge="1" parent="1">
          <mxGeometry width="50" height="50" relative="1" as="geometry">
            <mxPoint x="30" y="410" as="sourcePoint" />
            <mxPoint x="840" y="410" as="targetPoint" />
          </mxGeometry>
        </mxCell>
        <mxCell id="Pq_C5fKfiTd_kP-b9lsP-10" value="Kernel space" style="text;html=1;strokeColor=none;fillColor=none;align=center;verticalAlign=middle;whiteSpace=wrap;rounded=0;" vertex="1" parent="1">
          <mxGeometry x="30" y="420" width="110" height="30" as="geometry" />
        </mxCell>
        <mxCell id="Pq_C5fKfiTd_kP-b9lsP-11" value="User space" style="text;html=1;strokeColor=none;fillColor=none;align=center;verticalAlign=middle;whiteSpace=wrap;rounded=0;" vertex="1" parent="1">
          <mxGeometry x="30" y="360" width="110" height="30" as="geometry" />
        </mxCell>
        <mxCell id="Pq_C5fKfiTd_kP-b9lsP-13" value="Shared memory" style="swimlane;fontStyle=0;childLayout=stackLayout;horizontal=1;startSize=30;horizontalStack=0;resizeParent=1;resizeParentMax=0;resizeLast=0;collapsible=1;marginBottom=0;resizeHeight=1;" vertex="1" parent="1">
          <mxGeometry x="410" y="140" width="140" height="150" as="geometry" />
        </mxCell>
        <mxCell id="Pq_C5fKfiTd_kP-b9lsP-14" value="Driver counter : int32" style="text;strokeColor=none;fillColor=none;align=left;verticalAlign=middle;spacingLeft=4;spacingRight=4;overflow=hidden;points=[[0,0.5],[1,0.5]];portConstraint=eastwest;rotatable=0;" vertex="1" parent="Pq_C5fKfiTd_kP-b9lsP-13">
          <mxGeometry y="30" width="140" height="30" as="geometry" />
        </mxCell>
        <mxCell id="Pq_C5fKfiTd_kP-b9lsP-29" value="PWM duty : int32" style="text;strokeColor=none;fillColor=none;align=left;verticalAlign=middle;spacingLeft=4;spacingRight=4;overflow=hidden;points=[[0,0.5],[1,0.5]];portConstraint=eastwest;rotatable=0;" vertex="1" parent="Pq_C5fKfiTd_kP-b9lsP-13">
          <mxGeometry y="60" width="140" height="30" as="geometry" />
        </mxCell>
        <mxCell id="Pq_C5fKfiTd_kP-b9lsP-23" value="IRQ_count: uint32" style="text;strokeColor=none;fillColor=none;align=left;verticalAlign=middle;spacingLeft=4;spacingRight=4;overflow=hidden;points=[[0,0.5],[1,0.5]];portConstraint=eastwest;rotatable=0;" vertex="1" parent="Pq_C5fKfiTd_kP-b9lsP-13">
          <mxGeometry y="90" width="140" height="30" as="geometry" />
        </mxCell>
        <mxCell id="Pq_C5fKfiTd_kP-b9lsP-15" value="Counter desired : int32" style="text;strokeColor=none;fillColor=none;align=left;verticalAlign=middle;spacingLeft=4;spacingRight=4;overflow=hidden;points=[[0,0.5],[1,0.5]];portConstraint=eastwest;rotatable=0;" vertex="1" parent="Pq_C5fKfiTd_kP-b9lsP-13">
          <mxGeometry y="120" width="140" height="30" as="geometry" />
        </mxCell>
        <mxCell id="Pq_C5fKfiTd_kP-b9lsP-20" value="" style="endArrow=classic;html=1;rounded=0;exitX=0;exitY=0.5;exitDx=0;exitDy=0;entryX=0.5;entryY=1;entryDx=0;entryDy=0;" edge="1" parent="1" source="Pq_C5fKfiTd_kP-b9lsP-14" target="Pq_C5fKfiTd_kP-b9lsP-8">
          <mxGeometry width="50" height="50" relative="1" as="geometry">
            <mxPoint x="410" y="410" as="sourcePoint" />
            <mxPoint x="460" y="360" as="targetPoint" />
            <Array as="points">
              <mxPoint x="200" y="185" />
            </Array>
          </mxGeometry>
        </mxCell>
        <mxCell id="Pq_C5fKfiTd_kP-b9lsP-21" value="" style="endArrow=classic;html=1;rounded=0;exitX=0.4;exitY=1.029;exitDx=0;exitDy=0;exitPerimeter=0;entryX=0;entryY=0.5;entryDx=0;entryDy=0;" edge="1" parent="1" source="Pq_C5fKfiTd_kP-b9lsP-8" target="Pq_C5fKfiTd_kP-b9lsP-15">
          <mxGeometry width="50" height="50" relative="1" as="geometry">
            <mxPoint x="410" y="410" as="sourcePoint" />
            <mxPoint x="460" y="360" as="targetPoint" />
            <Array as="points">
              <mxPoint x="182" y="245" />
              <mxPoint x="182" y="275" />
            </Array>
          </mxGeometry>
        </mxCell>
        <mxCell id="Pq_C5fKfiTd_kP-b9lsP-22" value="" style="endArrow=classic;html=1;rounded=0;exitX=1;exitY=0.5;exitDx=0;exitDy=0;entryX=0.375;entryY=-0.067;entryDx=0;entryDy=0;entryPerimeter=0;" edge="1" parent="1" source="Pq_C5fKfiTd_kP-b9lsP-15" target="Pq_C5fKfiTd_kP-b9lsP-4">
          <mxGeometry width="50" height="50" relative="1" as="geometry">
            <mxPoint x="410" y="410" as="sourcePoint" />
            <mxPoint x="460" y="360" as="targetPoint" />
            <Array as="points">
              <mxPoint x="615" y="275" />
            </Array>
          </mxGeometry>
        </mxCell>
        <mxCell id="Pq_C5fKfiTd_kP-b9lsP-32" value="&lt;div&gt;Web server&lt;/div&gt;" style="rounded=1;whiteSpace=wrap;html=1;" vertex="1" parent="1">
          <mxGeometry x="500" y="35" width="190" height="60" as="geometry" />
        </mxCell>
        <mxCell id="Pq_C5fKfiTd_kP-b9lsP-34" value="" style="endArrow=none;html=1;rounded=0;exitX=0;exitY=0.5;exitDx=0;exitDy=0;" edge="1" parent="1" source="Pq_C5fKfiTd_kP-b9lsP-29">
          <mxGeometry width="50" height="50" relative="1" as="geometry">
            <mxPoint x="370" y="360" as="sourcePoint" />
            <mxPoint x="370" y="215" as="targetPoint" />
          </mxGeometry>
        </mxCell>
        <mxCell id="Pq_C5fKfiTd_kP-b9lsP-35" value="" style="endArrow=none;html=1;rounded=0;entryX=0;entryY=0.5;entryDx=0;entryDy=0;strokeWidth=3;exitDx=0;exitDy=0;startArrow=none;startFill=1;" edge="1" parent="1" source="Pq_C5fKfiTd_kP-b9lsP-42" target="Pq_C5fKfiTd_kP-b9lsP-23">
          <mxGeometry width="50" height="50" relative="1" as="geometry">
            <mxPoint x="370" y="60" as="sourcePoint" />
            <mxPoint x="420" y="310" as="targetPoint" />
            <Array as="points">
              <mxPoint x="370" y="65" />
              <mxPoint x="370" y="245" />
            </Array>
          </mxGeometry>
        </mxCell>
        <mxCell id="Pq_C5fKfiTd_kP-b9lsP-38" value="" style="endArrow=classic;html=1;rounded=0;strokeWidth=1;entryX=1;entryY=0.5;entryDx=0;entryDy=0;" edge="1" parent="1" target="Pq_C5fKfiTd_kP-b9lsP-23">
          <mxGeometry width="50" height="50" relative="1" as="geometry">
            <mxPoint x="630" y="245" as="sourcePoint" />
            <mxPoint x="420" y="360" as="targetPoint" />
          </mxGeometry>
        </mxCell>
        <mxCell id="Pq_C5fKfiTd_kP-b9lsP-39" value="" style="endArrow=classic;html=1;rounded=0;strokeWidth=1;entryX=1;entryY=0.5;entryDx=0;entryDy=0;" edge="1" parent="1" target="Pq_C5fKfiTd_kP-b9lsP-29">
          <mxGeometry width="50" height="50" relative="1" as="geometry">
            <mxPoint x="630" y="214.57999999999987" as="sourcePoint" />
            <mxPoint x="580" y="215" as="targetPoint" />
          </mxGeometry>
        </mxCell>
        <mxCell id="Pq_C5fKfiTd_kP-b9lsP-40" value="" style="endArrow=classic;html=1;rounded=0;strokeWidth=1;entryX=1;entryY=0.5;entryDx=0;entryDy=0;" edge="1" parent="1" target="Pq_C5fKfiTd_kP-b9lsP-14">
          <mxGeometry width="50" height="50" relative="1" as="geometry">
            <mxPoint x="630" y="185" as="sourcePoint" />
            <mxPoint x="580" y="190.4199999999999" as="targetPoint" />
          </mxGeometry>
        </mxCell>
        <mxCell id="Pq_C5fKfiTd_kP-b9lsP-41" value="" style="endArrow=none;html=1;rounded=0;strokeWidth=3;exitX=0.5;exitY=0;exitDx=0;exitDy=0;arcSize=22;" edge="1" parent="1" source="Pq_C5fKfiTd_kP-b9lsP-4">
          <mxGeometry width="50" height="50" relative="1" as="geometry">
            <mxPoint x="370" y="410" as="sourcePoint" />
            <mxPoint x="630" y="185" as="targetPoint" />
          </mxGeometry>
        </mxCell>
        <mxCell id="Pq_C5fKfiTd_kP-b9lsP-42" value="" style="shape=waypoint;sketch=0;fillStyle=solid;size=6;pointerEvents=1;points=[];fillColor=none;resizable=0;rotatable=0;perimeter=centerPerimeter;snapToPoint=1;" vertex="1" parent="1">
          <mxGeometry x="350" y="165" width="40" height="40" as="geometry" />
        </mxCell>
        <mxCell id="Pq_C5fKfiTd_kP-b9lsP-44" value="" style="endArrow=none;html=1;rounded=0;entryDx=0;entryDy=0;strokeWidth=3;exitX=0;exitY=0.5;exitDx=0;exitDy=0;startArrow=block;startFill=1;" edge="1" parent="1" source="Pq_C5fKfiTd_kP-b9lsP-32" target="Pq_C5fKfiTd_kP-b9lsP-42">
          <mxGeometry width="50" height="50" relative="1" as="geometry">
            <mxPoint x="500" y="65" as="sourcePoint" />
            <mxPoint x="410" y="245" as="targetPoint" />
            <Array as="points">
              <mxPoint x="370" y="65" />
            </Array>
          </mxGeometry>
        </mxCell>
      </root>
    </mxGraphModel>
  </diagram>
</mxfile>
